<?xml version="1.0" encoding="utf-8"?>
<!-- Generator: Adobe Illustrator 24.0.1, SVG Export Plug-In . SVG Version: 6.00 Build 0)  -->
<svg version="1.1" id="Layer_1" xmlns="http://www.w3.org/2000/svg" xmlns:xlink="http://www.w3.org/1999/xlink" x="0px" y="0px"
	 viewBox="0 0 243 190" style="enable-background:new 0 0 243 190;" xml:space="preserve">
<style type="text/css">
	.st0{fill:#b3e5fc;}
</style>
<path class="st0" d="M107.3,27.8c-26,3.8-45.1,20.4-51.3,44.5c-2.7,10.6-3.5,24.1-2.1,35c3.6,26.8,18.3,45.3,41.6,52.4
	c13.5,4.2,38.6,4.4,51.5,0.6c29.3-8.8,44.4-33.5,42.7-70c-0.7-13.8-2.3-21.2-7.2-31c-8.5-17.4-25-28.4-46.8-31.4
	C127,26.7,115.2,26.7,107.3,27.8z M133.8,60.7c5.4,2.8,10.6,8.9,12.8,15.2c2.6,7.3,2.6,29.8,0.1,38c-3.4,11.2-10.4,17.1-22,18.5
	c-13.1,1.5-24.5-5.9-28.2-18.7c-2.7-8.7-2.7-27.8-0.1-36.6c2.8-9.5,9.3-16.1,18.1-18.4C119.2,57.4,129.5,58.5,133.8,60.7z"/>
</svg>
