<?xml version="1.0" encoding="utf-8"?>
<!-- Generator: Adobe Illustrator 24.0.1, SVG Export Plug-In . SVG Version: 6.00 Build 0)  -->
<svg version="1.1" id="Layer_1" xmlns="http://www.w3.org/2000/svg" xmlns:xlink="http://www.w3.org/1999/xlink" x="0px" y="0px"
	 viewBox="0 0 164 172" style="enable-background:new 0 0 164 172;" xml:space="preserve">
<style type="text/css">
	.st0{fill:#2e7d32;}
</style>
<path class="st0" d="M70.3,18.9C51.8,22,40.1,29.6,34,42.8c-2.2,4.6-2.6,7.2-2.7,13.7c0,7.1,0.4,8.8,3.3,14.7
	C41,84.3,54.3,91.8,83.6,98.9c11.9,2.9,17.9,5.8,20.3,9.6c3,4.8,2.6,9.7-1,13.9c-3.9,4.4-8.5,5.9-16.3,5.4
	c-11.3-0.8-17.1-5.5-20.3-16.7l-1.6-5.3l-7.7,0.6c-4.2,0.3-12.7,0.9-18.9,1.2c-6.2,0.4-11.4,1-11.6,1.3c-0.8,1.5,2.6,14.1,5.4,19.7
	c6.4,13.1,17.2,20.9,33.3,23.9c10.2,1.9,33,1.9,42.2,0c15.9-3.3,28.4-12.8,34.8-26.2c2.9-6.2,3.2-7.6,3.2-16.8
	c0-8.7-0.4-10.7-2.6-15.5c-6.8-14.5-17.1-20.6-48.6-28.6c-9.5-2.4-18.7-5.1-20.3-5.9c-6.3-3.2-6.2-10,0-14.3
	c4.5-3,13.6-3.1,19.7-0.1c3.6,1.7,4.8,3.1,7.4,8.5c2.3,4.9,3.5,6.4,4.7,6c0.9-0.2,8.7-0.7,17.2-1.1c8.5-0.3,16.2-0.8,17.1-1.1
	c3.9-1.1-2.9-19.2-10-26.3c-4.7-4.7-11.3-8.3-19.7-10.6C103.6,18.6,78.3,17.6,70.3,18.9z"/>
</svg>
