<?xml version="1.0" encoding="utf-8"?>
<!-- Generator: Adobe Illustrator 24.0.1, SVG Export Plug-In . SVG Version: 6.00 Build 0)  -->
<svg version="1.1" id="Layer_1" xmlns="http://www.w3.org/2000/svg" xmlns:xlink="http://www.w3.org/1999/xlink" x="0px" y="0px"
	 viewBox="0 0 243 190" style="enable-background:new 0 0 243 190;" xml:space="preserve">
<style type="text/css">
	.st0{fill:#827717;}
</style>
<path class="st0" d="M30.5,32.2c0,0.7,6.5,30.3,14.4,65.8l14.3,64.5l20.1,0.3l20.1,0.2l1.4-4.7c0.8-2.7,5.9-20.9,11.3-40.5
	c6.1-22.1,10.2-35.2,10.6-34.3c0.5,0.8,5.7,18.8,11.7,40.2l10.9,38.8l20,0.3c18.5,0.2,20.1,0.1,20.6-1.5c0.6-2,21.2-95.8,25.2-114.3
	c1.3-6.3,2.6-12.5,2.9-13.8l0.5-2.2h-19.3h-19.3l-3.7,19.7c-2.1,10.9-5.2,27.1-6.9,36.1c-1.7,9-3.2,16.1-3.5,15.9
	c-0.2-0.3-4.8-16.4-10.2-35.8l-9.7-35.4l-19.5-0.3L103,31l-7.9,28.7C90.7,75.6,86.2,91.9,85,96c-2.2,7.4-2.3,7.4-3,4
	c-0.4-1.9-3.5-18.1-6.8-36L69,31.5l-19.3-0.3C34.7,31,30.5,31.2,30.5,32.2z"/>
</svg>
