<?xml version="1.0" encoding="utf-8"?>
<!-- Generator: Adobe Illustrator 24.0.1, SVG Export Plug-In . SVG Version: 6.00 Build 0)  -->
<svg version="1.1"
	 id="Layer_1" xmlns:cc="http://creativecommons.org/ns#" xmlns:dc="http://purl.org/dc/elements/1.1/" xmlns:inkscape="http://www.inkscape.org/namespaces/inkscape" xmlns:rdf="http://www.w3.org/1999/02/22-rdf-syntax-ns#" xmlns:sodipodi="http://sodipodi.sourceforge.net/DTD/sodipodi-0.dtd" xmlns:svg="http://www.w3.org/2000/svg"
	 xmlns="http://www.w3.org/2000/svg" xmlns:xlink="http://www.w3.org/1999/xlink" x="0px" y="0px" viewBox="0 0 100 66.9"
	 style="enable-background:new 0 0 100 66.9;" xml:space="preserve">
<g transform="translate(0,-952.36218)">
	<path d="M17,961c-0.8,0-1.6,0.2-2.3,0.4l33.5,29.8c1.2,1,2.5,1,3.6,0l33.4-29.8c-0.7-0.3-1.5-0.4-2.3-0.4C83,961,17,961,17,961z
		 M11.1,966.2c0,0.3-0.1,0.6-0.1,0.8v40c0,0.8,0.2,1.6,0.5,2.3l23.1-22.2L11.1,966.2L11.1,966.2z M88.9,966.2l-23.4,20.9l23.1,22.2
		c0.3-0.7,0.4-1.5,0.4-2.3v-40C89,966.8,89,966.5,88.9,966.2L88.9,966.2z M61,991.2l-5.2,4.6c-3.3,2.9-8.3,2.9-11.6,0l-5.2-4.6
		L16.3,1013c0.2,0,0.5,0,0.7,0h66c0.2,0,0.4,0,0.7,0C83.7,1013,61,991.2,61,991.2z"/>
</g>
</svg>
