<?xml version="1.0" encoding="utf-8"?>
<!-- Generator: Adobe Illustrator 24.0.1, SVG Export Plug-In . SVG Version: 6.00 Build 0)  -->
<svg version="1.1" id="Layer_1" xmlns="http://www.w3.org/2000/svg" xmlns:xlink="http://www.w3.org/1999/xlink" x="0px" y="0px"
	 viewBox="0 0 35.4 54.7" style="enable-background:new 0 0 35.4 54.7;" xml:space="preserve">
<path d="M4.5,24.7l0.1,0.1c0.1,0.4,0.3,0.7,0.5,1l12.3,25.3c0.2,0.3,0.5,0.6,0.9,0.6c0.4,0,0.7-0.2,0.9-0.6l12.3-25.3l0,0
	c0.2-0.3,0.3-0.6,0.4-0.9l0.1-0.2c0,0,0,0,0,0c0,0,0,0,0,0c0.8-1.9,1.2-3.9,1.2-6c0-8.3-6.7-15-15-15c-8.3,0-15,6.7-15,15
	C3.3,20.8,3.7,22.8,4.5,24.7C4.5,24.7,4.5,24.7,4.5,24.7z M18.3,12.1c3.7,0,6.6,3,6.6,6.6c0,1.9-0.8,3.6-2.1,4.9
	c-1.2,1.1-2.8,1.8-4.5,1.8c-3.6,0-6.6-3-6.6-6.6C11.6,15.1,14.6,12.1,18.3,12.1z"/>
</svg>
