<?xml version="1.0" encoding="utf-8"?>
<!-- Generator: Adobe Illustrator 24.0.1, SVG Export Plug-In . SVG Version: 6.00 Build 0)  -->
<svg version="1.1" id="Layer_1" xmlns="http://www.w3.org/2000/svg" xmlns:xlink="http://www.w3.org/1999/xlink" x="0px" y="0px"
	 viewBox="0 0 40.9 59.3" style="enable-background:new 0 0 40.9 59.3;" xml:space="preserve">
<path d="M7.7,5C6.1,5,4.8,6.3,4.8,7.9v44.2c0,1.6,1.3,2.9,2.9,2.9h26.2c1.6,0,2.9-1.3,2.9-2.9V7.9c0-1.6-1.3-2.9-2.9-2.9H7.7z
	 M34.8,7.9v44.2c0,0.5-0.4,0.9-0.9,0.9H7.7c-0.5,0-0.9-0.4-0.9-0.9V7.9C6.8,7.4,7.2,7,7.7,7h4.5v0.5c0,1.5,1.3,2.8,2.8,2.8h11.6
	c1.5,0,2.8-1.3,2.8-2.8V7h4.5C34.4,7,34.8,7.4,34.8,7.9z"/>
<path d="M28.3,49.3h-15c-0.5,0-1,0.5-1,1s0.5,1,1,1h15c0.5,0,1-0.5,1-1S28.9,49.3,28.3,49.3z"/>
</svg>
